<svg width="110" height="236" viewBox="0 0 110 236" fill="none" xmlns="http://www.w3.org/2000/svg">
<rect x="33" y="143" width="9" height="8" fill="#DC2F34"/>
<rect x="33" y="170" width="9" height="8" fill="#DC2F34"/>
<rect x="33" y="116" width="9" height="8" fill="#DC2F34"/>
<rect x="33" y="90" width="9" height="8" fill="#DC2F34"/>
<path d="M61.8885 76.3572H12.4238V183.108H61.8885V76.3572Z" stroke="white" stroke-width="2" stroke-miterlimit="10"/>
<path d="M42.1558 76.3572H32.1602V183.108H42.1558V76.3572Z" stroke="white" stroke-width="2" stroke-miterlimit="10"/>
<path d="M99.572 76.3572H61.8887V84.6045H99.572V76.3572Z" stroke="white" stroke-width="2" stroke-miterlimit="10"/>
<path d="M99.572 103.045H61.8887V111.293H99.572V103.045Z" stroke="white" stroke-width="2" stroke-miterlimit="10"/>
<path d="M99.572 129.733H61.8887V137.98H99.572V129.733Z" stroke="white" stroke-width="2" stroke-miterlimit="10"/>
<path d="M99.572 156.421H61.8887V164.668H99.572V156.421Z" stroke="white" stroke-width="2" stroke-miterlimit="10"/>
<path d="M106 183.109H6V191.356H106V183.109Z" stroke="white" stroke-width="2" stroke-miterlimit="10"/>
<path d="M106 70.8799H6V76.3576H106V70.8799Z" stroke="white" stroke-width="2" stroke-miterlimit="10"/>
<path d="M99.5718 60.0405H12.4238V65.5182H99.5718V60.0405Z" stroke="white" stroke-width="2" stroke-miterlimit="10"/>
<path d="M99.5723 183.108V76.3572" stroke="white" stroke-width="2" stroke-miterlimit="10"/>
<path d="M17.3594 76.3572V84.6045" stroke="white" stroke-width="2" stroke-miterlimit="10"/>
<path d="M22.291 76.3572V84.6045" stroke="white" stroke-width="2" stroke-miterlimit="10"/>
<path d="M27.2266 76.3572V84.6045" stroke="white" stroke-width="2" stroke-miterlimit="10"/>
<path d="M47.0859 76.3577V84.605" stroke="white" stroke-width="2" stroke-miterlimit="10"/>
<path d="M52.0215 76.3577V84.605" stroke="white" stroke-width="2" stroke-miterlimit="10"/>
<path d="M56.9531 76.3577V84.605" stroke="white" stroke-width="2" stroke-miterlimit="10"/>
<path d="M17.3594 103.045V111.292" stroke="white" stroke-width="2" stroke-miterlimit="10"/>
<path d="M22.291 103.045V111.292" stroke="white" stroke-width="2" stroke-miterlimit="10"/>
<path d="M27.2266 103.045V111.292" stroke="white" stroke-width="2" stroke-miterlimit="10"/>
<path d="M47.0859 103.045V111.293" stroke="white" stroke-width="2" stroke-miterlimit="10"/>
<path d="M52.0215 103.045V111.293" stroke="white" stroke-width="2" stroke-miterlimit="10"/>
<path d="M56.9531 103.045V111.293" stroke="white" stroke-width="2" stroke-miterlimit="10"/>
<path d="M17.3594 129.733V137.98" stroke="white" stroke-width="2" stroke-miterlimit="10"/>
<path d="M22.291 129.733V137.98" stroke="white" stroke-width="2" stroke-miterlimit="10"/>
<path d="M27.2266 129.733V137.98" stroke="white" stroke-width="2" stroke-miterlimit="10"/>
<path d="M47.0859 129.733V137.98" stroke="white" stroke-width="2" stroke-miterlimit="10"/>
<path d="M52.0215 129.733V137.98" stroke="white" stroke-width="2" stroke-miterlimit="10"/>
<path d="M56.9531 129.733V137.98" stroke="white" stroke-width="2" stroke-miterlimit="10"/>
<path d="M17.3594 156.421V164.668" stroke="white" stroke-width="2" stroke-miterlimit="10"/>
<path d="M22.291 156.421V164.668" stroke="white" stroke-width="2" stroke-miterlimit="10"/>
<path d="M27.2266 156.421V164.668" stroke="white" stroke-width="2" stroke-miterlimit="10"/>
<path d="M47.0859 156.421V164.668" stroke="white" stroke-width="2" stroke-miterlimit="10"/>
<path d="M52.0215 156.421V164.668" stroke="white" stroke-width="2" stroke-miterlimit="10"/>
<path d="M56.9531 156.421V164.668" stroke="white" stroke-width="2" stroke-miterlimit="10"/>
<path d="M32.1582 76.3572H42.1538" stroke="white" stroke-width="2" stroke-miterlimit="10"/>
<path d="M32.1582 84.6047H42.1538" stroke="white" stroke-width="2" stroke-miterlimit="10"/>
<path d="M32.1582 103.045H42.1538" stroke="white" stroke-width="2" stroke-miterlimit="10"/>
<path d="M32.1582 111.292H42.1538" stroke="white" stroke-width="2" stroke-miterlimit="10"/>
<path d="M32.1582 129.733H42.1538" stroke="white" stroke-width="2" stroke-miterlimit="10"/>
<path d="M32.1582 137.98H42.1538" stroke="white" stroke-width="2" stroke-miterlimit="10"/>
<path d="M32.1582 156.421H42.1538" stroke="white" stroke-width="2" stroke-miterlimit="10"/>
<path d="M32.1582 164.668H42.1538" stroke="white" stroke-width="2" stroke-miterlimit="10"/>
<path d="M19.4897 191.356H12.4238V213.662H19.4897V191.356Z" stroke="white" stroke-width="2" stroke-miterlimit="10"/>
<path d="M19.4897 213.662H12.4238V218.977H19.4897V213.662Z" stroke="white" stroke-width="2" stroke-miterlimit="10"/>
<path d="M99.312 191.356H92.2461V213.662H99.312V191.356Z" stroke="white" stroke-width="2" stroke-miterlimit="10"/>
<path d="M99.312 213.662H92.2461V218.977H99.312V213.662Z" stroke="white" stroke-width="2" stroke-miterlimit="10"/>
<path d="M37.6777 191.356V218.977" stroke="white" stroke-width="2" stroke-miterlimit="10"/>
<path d="M55.8672 191.356V218.977" stroke="white" stroke-width="2" stroke-miterlimit="10"/>
<path d="M74.0547 191.356V218.977" stroke="white" stroke-width="2" stroke-miterlimit="10"/>
<path d="M25.3633 191.356V218.977" stroke="white" stroke-width="2" stroke-miterlimit="10"/>
<path d="M31.4004 191.356V218.977" stroke="white" stroke-width="2" stroke-miterlimit="10"/>
<path d="M19.4902 196.453H37.6774" stroke="white" stroke-width="2" stroke-miterlimit="10"/>
<path d="M19.4902 202.242H37.6774" stroke="white" stroke-width="2" stroke-miterlimit="10"/>
<path d="M19.4902 208.032H37.6774" stroke="white" stroke-width="2" stroke-miterlimit="10"/>
<path d="M19.4902 213.822H37.6774" stroke="white" stroke-width="2" stroke-miterlimit="10"/>
<path d="M79.9316 191.356V218.977" stroke="white" stroke-width="2" stroke-miterlimit="10"/>
<path d="M85.9668 191.356V218.977" stroke="white" stroke-width="2" stroke-miterlimit="10"/>
<path d="M74.0547 196.452H92.2455" stroke="white" stroke-width="2" stroke-miterlimit="10"/>
<path d="M74.0547 202.242H92.2455" stroke="white" stroke-width="2" stroke-miterlimit="10"/>
<path d="M74.0547 208.032H92.2455" stroke="white" stroke-width="2" stroke-miterlimit="10"/>
<path d="M74.0547 213.822H92.2455" stroke="white" stroke-width="2" stroke-miterlimit="10"/>
<path d="M15.8301 65.5183V70.8798" stroke="white" stroke-width="2" stroke-miterlimit="10"/>
<path d="M96.166 65.5183V70.8798" stroke="white" stroke-width="2" stroke-miterlimit="10"/>
<path d="M19.4902 218.977H92.2461" stroke="white" stroke-width="2" stroke-miterlimit="10"/>
<path d="M56.8906 58.8978C52.7561 58.8978 46.2523 58.0616 39.5162 53.5554C39.191 53.3231 31.0149 48.2595 27.5772 36.7849C27.4842 36.4133 24.8827 27.8655 30.4574 22.105C30.7826 21.7333 33.5699 18.5743 38.3084 17.5988C38.68 13.3249 42.7217 1.19995 56.8442 1.19995H56.8906C71.0596 1.19995 75.0548 13.3249 75.4729 17.5988C80.2113 18.5279 82.9987 21.7333 83.3239 22.105C88.8985 27.8655 86.297 36.4133 86.2041 36.7849C82.7664 48.2595 74.6367 53.3231 74.265 53.5554C67.529 58.0616 61.0252 58.8978 56.8906 58.8978Z" fill="white"/>
<path d="M80.1657 53.416C78.8185 53.416 77.75 54.4845 77.75 55.8317C77.75 57.1789 78.8185 58.2474 80.1657 58.2474C81.5129 58.2474 82.5814 57.1789 82.5814 55.8317C82.5349 54.5309 81.4664 53.416 80.1657 53.416ZM80.1657 57.8293C79.0508 57.8293 78.1681 56.9466 78.1681 55.8317C78.1681 54.7632 79.0508 53.8341 80.1657 53.8341C81.2342 53.8341 82.1633 54.7168 82.1633 55.8317C82.1168 56.9466 81.2342 57.8293 80.1657 57.8293Z" fill="white"/>
<path d="M81.235 56.9469V56.4359C81.235 56.0178 81.0492 55.9713 80.9098 55.8784C81.0957 55.7855 81.2815 55.5997 81.2815 55.1816C81.2815 54.5777 80.8169 54.3918 80.3988 54.3918H79.1445V57.3186H79.5162V56.0642H80.3988C80.8634 56.0642 80.9098 56.343 80.9098 56.5753C80.9098 56.6682 80.9098 57.1327 80.9563 57.3186H81.4209V57.2721C81.2815 57.1792 81.2815 57.0863 81.235 56.9469ZM80.3524 55.6926H79.5162V54.717H80.4453C80.6311 54.717 80.9563 54.7635 80.9563 55.1816C80.9098 55.6461 80.6311 55.6926 80.3524 55.6926Z" fill="white"/>
<path d="M80.1188 53.416C78.7716 53.416 77.7031 54.4845 77.7031 55.8317C77.7031 57.1789 78.7716 58.2474 80.1188 58.2474C81.466 58.2474 82.5345 57.1789 82.5345 55.8317C82.5345 54.5309 81.466 53.416 80.1188 53.416ZM80.1188 57.8293C79.0039 57.8293 78.1212 56.9466 78.1212 55.8317C78.1212 54.7168 79.0039 53.8341 80.1188 53.8341C81.2337 53.8341 82.1164 54.7168 82.1164 55.8317C82.1164 56.9466 81.2337 57.8293 80.1188 57.8293Z" fill="white"/>
<path d="M81.2331 56.9469V56.4359C81.2331 56.0178 81.0473 55.9713 80.9079 55.8784C81.0937 55.7855 81.2795 55.5997 81.2795 55.1816C81.2795 54.5777 80.815 54.3918 80.3969 54.3918H79.1426V57.3185H79.5142V56.0642H80.3969C80.8614 56.0642 80.9079 56.343 80.9079 56.5753C80.9079 56.6682 80.9079 57.1327 80.9543 57.3185H81.4189V57.2721C81.2795 57.1792 81.2331 57.0863 81.2331 56.9469ZM80.3504 55.6926H79.4678V54.717H80.3969C80.5827 54.717 80.9079 54.7635 80.9079 55.228C80.9079 55.6461 80.6292 55.6926 80.3504 55.6926Z" fill="white"/>
<path d="M82.4414 23.0341C82.4414 23.0341 79.5147 19.4571 74.4046 18.8067C74.4046 18.8067 73.4755 2.31494 56.9373 2.31494H56.8909C40.3991 2.31494 39.4236 18.8067 39.4236 18.8067C34.4064 19.4106 31.4332 23.0341 31.4332 23.0341C26.1837 28.423 28.7852 36.5527 28.7852 36.5527C32.13 47.702 40.1669 52.6263 40.1669 52.6263C46.6242 56.9467 52.9421 57.8294 56.9373 57.8758C60.9325 57.8294 67.204 56.9467 73.7078 52.6263C73.7078 52.6263 81.7446 47.702 85.0894 36.5527C85.0894 36.5527 87.7374 28.423 82.4414 23.0341Z" fill="#DC2F34"/>
<path d="M80.3506 24.2884C80.3506 24.2884 77.7956 21.4546 72.128 20.8507C72.128 20.8507 71.8028 4.49829 56.937 4.49829C42.0712 4.49829 41.746 20.8507 41.746 20.8507C36.0784 21.4081 33.5234 24.2884 33.5234 24.2884C28.7385 29.2127 31.2471 36.181 31.2471 36.181C34.3596 46.4941 41.746 50.861 41.746 50.861C47.7388 54.8561 53.3599 55.6459 56.937 55.6459C60.5141 55.6459 66.1817 54.8561 72.128 50.861C72.128 50.861 79.5144 46.4941 82.6269 36.181C82.6269 36.181 85.182 29.2127 80.3506 24.2884Z" fill="white"/>
<path d="M80.4442 30.5597C80.4442 30.5597 79.3293 24.474 73.2436 24.2417H68.1335C68.7838 22.7551 69.0161 21.5008 69.0161 19.2709C68.9697 12.7207 63.7202 7.6106 56.9841 7.6106H56.8448C50.1552 7.6106 44.8128 12.6743 44.7663 19.2245C44.7663 21.4544 45.045 22.848 45.7419 24.2417H40.3995C34.3138 24.6598 33.4311 30.5597 33.4311 30.5597C32.9201 34.88 34.4067 37.7138 34.4067 37.7138C34.4067 37.7138 38.2625 48.3986 50.4803 51.7434C50.4803 51.7434 53.1283 52.5796 56.9377 52.6261C60.747 52.5796 63.395 51.7434 63.395 51.7434C75.6128 48.3986 79.4686 37.7138 79.4686 37.7138C79.4686 37.7138 80.9552 34.88 80.4442 30.5597ZM79.0041 37.528C79.0041 37.528 75.2412 48.027 63.2556 51.2788C63.2556 51.2788 60.6541 52.115 56.9377 52.115C53.2212 52.0686 50.6197 51.2788 50.6197 51.2788C38.6342 48.027 34.8713 37.528 34.8713 37.528C34.8713 37.528 33.3847 34.7871 33.8957 30.5132C33.8957 30.5132 34.9642 24.7992 40.9569 24.6133H46.4852C45.649 22.9409 45.3238 21.6866 45.3238 19.5497C45.3702 13.1388 50.341 7.98224 56.8912 7.98224H56.9841C63.5808 7.98224 68.5051 13.0924 68.5516 19.5497C68.5516 21.7331 68.2264 22.9409 67.3902 24.6133H72.9184C78.9112 24.7992 79.9796 30.5132 79.9796 30.5132C80.4907 34.7871 79.0041 37.528 79.0041 37.528Z" fill="#DC2F34"/>
<path d="M45.1375 31.2566C43.7438 31.2566 42.6289 32.6967 42.6289 34.5085C42.6289 36.3203 43.7438 37.7604 45.1375 37.7604C46.5312 37.7604 47.6461 36.2738 47.6461 34.5085C47.6461 32.6967 46.5312 31.2566 45.1375 31.2566Z" fill="#DC2F34"/>
<path d="M77.9355 28.0512C75.9844 25.3103 72.6396 25.3567 72.6396 25.3567H64.5563L64.4169 25.5426C62.8374 27.9118 60.3753 29.5377 56.8911 29.5377C54.3361 29.5377 50.9912 27.9118 49.4118 25.5426L49.3653 25.3567H41.2356C41.2356 25.3567 37.8908 25.3103 35.9396 28.0512C35.9396 28.0512 33.2917 30.792 35.6145 37.11C35.6145 37.11 39.0522 47.0515 50.759 50.3498C50.759 50.3498 53.2676 51.1396 56.8447 51.186H56.8911H56.9376C60.5146 51.1396 63.0232 50.3498 63.0232 50.3498C74.7301 47.005 78.1678 37.11 78.1678 37.11C80.6299 30.792 77.9355 28.0512 77.9355 28.0512ZM57.495 30.3275H62.6516V31.7212H60.654V35.4376H62.6516V36.8313H58.4241C57.9131 36.8313 57.495 36.4132 57.495 35.9022V30.3275ZM56.6124 30.3275V31.7676H54.94V35.4841H56.6124V36.9242H52.7566C52.2456 36.9242 51.8274 36.5061 51.8274 35.9951V30.4204H56.6124V30.3275ZM46.8567 38.9218V41.6162H50.6196V43.0563H39.749V41.6162H43.4654V38.9218C41.1427 38.3643 39.4703 36.6454 39.4703 34.6014C39.4703 32.0928 42.0253 30.0952 45.1378 30.0952C48.2968 30.0952 50.8054 32.0928 50.8054 34.6014C50.8519 36.6454 49.1795 38.3643 46.8567 38.9218ZM62.791 39.3863H58.7493V42.4989C58.7493 43.2421 58.006 43.7996 57.0769 43.7996C56.1478 43.7996 55.4045 43.1957 55.4045 42.4989C55.4045 42.4524 55.4045 42.4059 55.4045 42.3595V39.4328H51.6881V37.8997H62.8374V39.3863H62.791ZM69.8987 39.8044C69.8987 43.2886 64.5563 43.1028 64.5563 43.1028C64.0917 43.1028 63.813 42.7311 63.813 42.2666C63.813 41.802 64.0917 41.4768 64.6492 41.4304C66.8791 41.0123 66.8791 39.5257 66.8791 39.5257V31.8141H63.813V30.3275H69.8987V39.8044ZM74.4049 42.2201C74.4049 42.9634 73.7545 43.5209 72.8254 43.5209C71.8963 43.5209 71.1994 42.917 71.1994 42.2201V30.0952H74.3584V42.2201H74.4049Z" fill="#DC2F34"/>
<path d="M51.6881 16.3443C51.6881 16.3443 53.2211 15.4616 53.7786 16.2513C53.7786 16.2513 54.2431 16.5301 54.1038 15.7868C54.1038 15.7868 53.314 14.1608 51.5023 15.9726C51.5487 15.9726 50.6196 16.9482 51.6881 16.3443Z" fill="#DC2F34"/>
<path d="M60.1434 14.393L58.9355 14.9505C58.1458 15.3686 58.6103 15.8796 58.6103 15.8796C59.2607 16.53 59.8182 16.019 59.8182 16.019C60.7008 15.0434 61.6764 15.5079 61.6764 15.5079C61.3977 13.6033 60.1434 14.393 60.1434 14.393Z" fill="#DC2F34"/>
<path d="M58.0058 20.0606C58.7027 20.0606 59.2601 19.5031 59.2137 18.8063C59.2137 18.1094 58.6562 17.552 57.9594 17.5984C57.2625 17.5984 56.7051 18.1559 56.7051 18.8527C56.798 19.5495 57.3555 20.107 58.0058 20.0606Z" fill="#DC2F34"/>
<path d="M54.3834 18.4811C54.3834 18.4811 53.3149 18.7134 54.5228 19.4567C54.5228 19.4567 55.6377 20.1071 55.6377 19.4102C55.6377 19.4102 54.848 19.5031 55.4983 18.5276C55.4983 18.5276 55.5448 17.3197 54.6621 17.2268C54.6621 17.2268 55.4054 18.4811 54.3834 18.4811Z" fill="#DC2F34"/>
<path d="M53.314 18.2955C53.314 18.2955 54.3824 18.0167 53.2211 18.0167C53.2211 18.0167 52.1061 18.1561 51.6416 17.2734C51.6416 17.2734 50.7125 16.3908 51.2699 17.4593C51.2699 17.5057 51.688 18.8529 53.314 18.2955Z" fill="#DC2F34"/>
<path d="M60.423 22.0582L59.6332 22.5692C59.6332 22.5692 58.9364 22.8479 59.1687 22.1046C59.1687 22.1046 59.0757 20.0606 58.0537 20.9432C58.0537 20.9432 57.1711 21.8723 56.5207 22.1046C56.5207 22.1046 55.3593 22.755 54.105 21.8723C54.105 21.8723 52.6649 20.4787 51.9216 20.5716C51.9216 20.5716 51.0389 20.5251 51.9216 20.8503C51.9216 20.8503 52.4791 20.9897 53.0365 21.4078C53.0365 21.4078 54.0121 22.5692 54.5696 22.8479C54.5696 22.8479 55.3593 23.4054 56.9388 23.4518C56.9388 23.4518 59.1222 23.7306 60.6088 22.3369C60.7017 22.244 61.1198 21.6401 60.423 22.0582ZM57.5892 22.5692L56.9852 22.4763C56.9852 22.4763 57.8679 22.1975 58.1466 21.7794C58.1931 21.7794 58.0073 22.4763 57.5892 22.5692Z" fill="#DC2F34"/>
<path d="M65.997 19.8751C65.997 19.7357 65.997 19.6428 65.997 19.5034C65.997 19.4105 65.997 19.2711 65.997 19.1782C66.0899 18.0168 65.9506 15.3224 63.349 12.2563C63.349 12.2563 60.1436 7.84306 54.8477 10.3517C54.8477 10.3517 52.7107 8.86508 50.9454 10.491C50.9454 10.491 49.4124 11.6989 50.295 13.7429C50.295 13.7429 49.9234 14.161 49.5053 14.8579C48.4832 16.298 47.9258 17.9704 47.9258 19.5499C47.9258 23.3592 50.295 26.6111 53.5934 28.0048C54.0115 28.2371 54.5225 28.4229 55.0799 28.6087C55.0799 28.6087 59.4932 30.1417 63.2097 26.2395C63.86 25.6355 64.4175 24.9387 64.8356 24.149C65.3931 23.6844 67.7159 21.6868 65.997 19.8751ZM63.6742 22.2907C63.1632 24.2419 61.6766 25.4497 61.0263 25.9143H60.9798C60.794 26.0536 60.7011 26.1001 60.7011 26.1001C59.5861 26.7505 58.3318 27.1221 56.9846 27.1221C52.943 27.1221 49.6446 23.9631 49.4124 20.0144C49.273 17.2271 51.5029 14.9043 51.5029 14.9043C53.7327 15.183 54.8477 14.3468 54.8477 14.3468C58.0531 16.2515 58.4247 13.9752 58.4247 13.9752C56.8453 14.1146 57.5421 13.2319 57.5421 13.2319C57.9137 12.6744 58.8893 12.8603 58.8893 12.8603C63.7671 13.65 62.1876 16.9019 62.1876 16.9019C63.6742 17.7381 62.9774 18.4349 62.9774 18.4349C62.0018 18.1562 61.8625 18.5278 62.0018 18.9924C62.1412 19.457 62.4664 19.7357 62.838 20.0609C63.0703 20.2932 63.2561 20.6183 63.349 20.8506C63.3955 20.9435 63.4419 21.0364 63.4419 21.1758C63.4419 21.2223 63.4419 21.2687 63.4419 21.2687C63.4884 21.4545 63.4884 21.6404 63.4884 21.7333C63.5349 21.7797 63.6278 21.7333 63.6742 21.6404C63.953 20.99 65.0214 20.2932 65.0214 21.3616C64.975 22.6624 63.6742 22.2907 63.6742 22.2907Z" fill="#DC2F34"/>
<path d="M63.3027 20.8503C63.3492 20.9897 63.3956 21.0826 63.3956 21.1755C63.3492 21.0362 63.3492 20.9433 63.3027 20.8503Z" fill="white"/>
</svg>
