<svg width="250" height="240" viewBox="0 0 250 240" fill="none" xmlns="http://www.w3.org/2000/svg">
<path d="M169.233 56.8895L160.4 71.9051L166.142 82.5044L190.432 65.2806V49.8233L186.015 44.9653L169.233 56.8895Z" fill="#65AA3C"/>
<path d="M155.984 90.4537C146.445 97.5199 142.588 120.191 141.852 130.643L144.943 132.409L163.492 118.277L179.832 110.769L190.873 96.6366L200.589 80.7378L205.889 70.5801L204.122 64.8389H193.965C185.279 70.4329 165.523 83.3876 155.984 90.4537Z" fill="#65AA3C"/>
<path d="M196.742 89.9844C196.683 89.9647 196.623 89.9449 196.568 89.9134C195.948 89.602 195.715 88.8545 196.032 88.2375C196.425 87.4751 196.787 86.5711 197.149 85.6277C197.676 84.2796 198.28 82.7466 199.145 81.2612C199.842 80.0745 200.789 78.8133 201.696 77.5914C203.369 75.3638 205.251 72.8375 205.234 71.1111C205.214 69.1606 204.66 67.8072 203.536 66.9997C200.435 64.7465 193.476 66.8183 190.86 67.5898C190.198 67.7896 189.495 67.4112 189.308 66.7582C189.11 66.1012 189.495 65.4017 190.154 65.2138C195.489 63.6394 201.432 62.3725 205.026 64.9999C206.793 66.284 207.704 68.3339 207.742 71.0788C207.774 73.6507 205.709 76.4048 203.699 79.0725C202.781 80.2904 201.926 81.4376 201.309 82.5065C200.54 83.8269 200.005 85.1986 199.473 86.5193C199.075 87.5295 198.693 88.4924 198.247 89.3688C197.963 89.9308 197.323 90.1778 196.742 89.9844Z" fill="white"/>
<path d="M101.61 181.313L101.55 178.786C101.24 164.837 108.695 149.168 113.163 141.075C113.723 140.054 114.327 139.06 114.906 138.098C117.029 134.592 118.871 131.557 118.566 127.741C118.117 122.263 114.223 118.604 110.096 114.736C105.199 110.153 100.144 105.411 101.277 97.4676C101.549 95.5897 102.151 93.5589 102.805 91.4143C103.617 88.7315 104.449 85.9505 104.723 83.1414C105.124 79.1142 106.748 69.1159 113.205 63.273C115.114 61.5464 119.069 57.9676 122.598 60.5338C126.19 63.1473 132.091 73.7088 134.303 79.5506C134.544 80.1953 134.219 80.914 133.569 81.1568C132.919 81.3996 132.196 81.0805 131.955 80.4358C129.654 74.3935 123.981 64.6299 121.098 62.5281C119.534 61.3906 117.477 62.7398 114.875 65.1022C109.062 70.3722 107.574 79.628 107.202 83.3762C106.899 86.425 105.994 89.4574 105.187 92.1284C104.565 94.1788 103.979 96.1231 103.743 97.8164C102.792 104.495 107.171 108.591 111.805 112.943C116.088 116.968 120.525 121.122 121.048 127.544C121.423 132.157 119.289 135.66 117.039 139.386C116.467 140.324 115.892 141.274 115.34 142.272C111.291 149.599 104.747 163.261 104.084 175.89C104.872 175.089 105.673 174.214 106.493 173.319C109.018 170.564 111.631 167.706 114.882 165.993C115.493 165.671 116.247 165.896 116.568 166.502C116.889 167.107 116.659 167.858 116.048 168.179C113.186 169.681 110.724 172.365 108.343 174.971C106.737 176.734 105.22 178.394 103.582 179.712L101.61 181.313Z" fill="white"/>
<path d="M132.687 81.2719C132.639 81.2561 132.592 81.2403 132.548 81.2127C131.92 80.9247 131.659 80.1808 131.952 79.5556C134.33 74.5775 139.823 71.5429 145.122 68.6142C145.97 68.1471 146.817 67.6799 147.652 67.2088C148.162 66.9183 149.085 66.2663 150.049 65.575C152.844 63.5876 154.278 62.645 155.238 62.5439C159.225 62.1357 160.544 66.2015 161.513 69.1653C161.773 69.9879 162.026 70.7555 162.3 71.3853C162.574 72.0151 162.284 72.7466 161.648 73.0212C161.012 73.2959 160.276 73.0117 160.002 72.3819C159.674 71.6418 159.401 70.8152 159.121 69.9336C158.117 66.8399 157.325 64.8284 155.48 65.0032C154.928 65.1481 152.694 66.731 151.504 67.5833C150.436 68.3453 149.513 68.9973 148.892 69.3428C148.053 69.8257 147.189 70.3007 146.33 70.7639C141.373 73.5041 136.242 76.3306 134.217 80.5852C133.944 81.1908 133.28 81.4693 132.687 81.2719Z" fill="white"/>
<path d="M160.765 73.164C160.445 73.0574 160.169 72.8211 160.028 72.4984C159.743 71.8649 160.032 71.1337 160.656 70.8552C162.357 70.0943 163.535 67.386 164.913 64.2453C166.18 61.3561 167.614 58.0896 169.882 55.4023C172.572 52.2121 175.39 50.8901 177.882 49.7093C179.567 48.9169 181.018 48.2304 182.186 47.0953C182.35 46.9263 182.537 46.6867 182.745 46.4273C183.628 45.3154 185.117 43.4727 187.042 44.297C192.741 46.7974 192.255 54.9379 191.867 61.4818C191.753 63.2829 191.655 64.9975 191.706 66.3545C191.733 67.0467 191.183 67.6124 190.497 67.6469C189.815 67.6697 189.228 67.1459 189.201 66.4537C189.15 64.9788 189.264 63.217 189.371 61.3608C189.707 55.5483 190.128 48.3713 186.018 46.5572C185.756 46.6277 185.029 47.5549 184.709 47.9478C184.43 48.3015 184.162 48.6197 183.939 48.8475C182.468 50.2891 180.755 51.0854 178.954 51.9445C176.59 53.0625 174.145 54.2197 171.814 56.9778C169.786 59.3901 168.424 62.4837 167.222 65.2234C165.642 68.8359 164.268 71.9648 161.693 73.1179C161.383 73.2512 161.062 73.2627 160.765 73.164Z" fill="white"/>
<path d="M164.048 84.974C163.751 84.8753 163.491 84.6705 163.331 84.3675C163.009 83.7614 163.256 83.0027 163.876 82.6967C169.199 79.962 174.219 76.2987 179.079 72.7532C182.534 70.2247 186.125 67.6098 189.812 65.3293C190.401 64.9603 191.173 65.1382 191.542 65.7207C191.911 66.3032 191.728 67.0699 191.139 67.4389C187.535 69.6684 183.992 72.2598 180.573 74.7608C175.636 78.373 170.529 82.0991 165.031 84.9201C164.709 85.0495 164.357 85.0766 164.048 84.974Z" fill="white"/>
<path d="M138.771 136.558C138.7 136.535 138.621 136.495 138.542 136.456C137.947 136.113 137.742 135.363 138.082 134.754L138.346 134.291C139.481 132.359 140.645 130.345 140.376 128.431C140.277 127.755 140.756 127.127 141.437 127.025C142.129 126.928 142.748 127.396 142.846 128.072C143.245 130.843 141.786 133.336 140.506 135.535L140.242 135.998C139.946 136.517 139.328 136.744 138.771 136.558Z" fill="white"/>
<path d="M110.29 186.052C109.756 185.874 109.299 185.551 108.949 185.146L109.267 184.871L108.902 185.091L108.258 184.116L108.86 183.593C109.046 182.894 109.429 181.814 110.097 180.014C110.298 179.464 110.596 178.71 110.97 177.81C112.192 174.777 114.475 169.143 114.357 167.174C114.314 166.49 114.844 165.905 115.533 165.858C116.218 165.824 116.809 166.336 116.852 167.02C116.98 169.347 115.166 174.073 113.284 178.725C112.935 179.593 112.633 180.32 112.468 180.803C111.945 182.178 111.63 183.098 111.445 183.679C111.591 183.636 111.77 183.538 111.985 183.373C112.395 183.063 113.044 181.704 113.61 180.514C114.228 179.209 114.93 177.736 115.817 176.377C118.175 172.803 121.12 169.635 124.245 166.29C124.871 165.618 125.496 164.947 126.126 164.264C126.589 163.761 127.381 163.723 127.897 164.183C128.401 164.64 128.435 165.426 127.969 165.94C127.339 166.624 126.709 167.307 126.084 167.978C123.039 171.245 120.161 174.331 117.915 177.732C117.116 178.95 116.454 180.344 115.876 181.57C115.058 183.306 114.404 184.677 113.497 185.36C112.34 186.235 111.214 186.36 110.29 186.052Z" fill="white"/>
<path d="M126.648 166.37C126.589 166.351 126.518 166.327 126.462 166.296C125.847 165.973 125.614 165.225 125.942 164.613C127.6 161.502 129.719 158.163 131.942 154.636C134.445 150.677 137.032 146.588 138.904 142.892C139.557 141.599 140.087 140.319 140.594 139.069C142.218 135.133 143.749 131.428 148.586 128.325C149.819 127.54 151.118 126.791 152.381 126.069C155.385 124.351 158.5 122.578 161.129 119.948C165.046 116.026 172.182 111.18 178.605 109.773C179.275 109.629 179.95 110.05 180.092 110.714C180.234 111.379 179.807 112.051 179.137 112.195C174.058 113.301 167.39 117.2 162.912 121.684C160.04 124.561 156.79 126.421 153.639 128.221C152.344 128.958 151.132 129.645 149.959 130.41C145.786 133.077 144.463 136.287 142.928 140.004C142.398 141.285 141.851 142.612 141.154 143.995C139.23 147.806 136.611 151.949 134.076 155.963C131.869 159.443 129.79 162.742 128.172 165.775C127.868 166.317 127.229 166.564 126.648 166.37Z" fill="white"/>
<path d="M178.451 112.273C178.203 112.19 177.978 112.037 177.821 111.801C177.433 111.238 177.58 110.46 178.148 110.072C183.407 106.466 187.059 101.039 190.59 95.8083C192.356 93.1929 194.181 90.4794 196.203 88.0018C196.638 87.4639 197.43 87.3863 197.97 87.8153C198.51 88.2444 198.584 89.0305 198.149 89.5684C196.211 91.9557 194.405 94.6103 192.679 97.1864C189.012 102.621 185.229 108.241 179.573 112.121C179.231 112.349 178.819 112.395 178.451 112.273Z" fill="white"/>
<path d="M128.69 126.819C128.039 126.602 127.687 125.894 127.908 125.246C128.186 124.433 128.185 124.052 127.925 123.191C127.712 122.464 127.483 121.745 127.27 121.018C125.335 114.678 123.33 108.117 124.408 101.376C125.074 97.1494 126.67 93.5994 128.21 90.1751C129.638 87.0021 131.118 83.7153 131.917 79.795C132.055 79.1193 132.719 78.684 133.398 78.8184C134.078 78.9528 134.513 79.6095 134.374 80.2852C133.51 84.4726 131.974 87.8851 130.49 91.1838C128.946 94.6199 127.495 97.8635 126.877 101.753C125.898 107.936 127.725 113.938 129.667 120.294C129.892 121.025 130.105 121.752 130.33 122.483C130.737 123.839 130.72 124.739 130.289 126.039C130.055 126.683 129.341 127.036 128.69 126.819Z" fill="white"/>
<path d="M106.761 167.498L107.002 165.676C107.942 158.68 111.562 150.018 117.74 139.925C118.603 138.519 119.276 137.011 119.93 135.563C121.661 131.691 123.449 127.694 128.882 125.068L129.592 124.727L129.77 125.482C131.789 134.12 126.044 141.208 120.498 148.06C118.669 150.325 116.776 152.66 115.196 155.008C114.183 156.507 113.371 158.034 112.575 159.514C111.263 161.964 110.011 164.277 108.074 166.203L106.761 167.498ZM128.707 126.545C124.256 128.96 122.709 132.407 121.081 136.051C120.412 137.547 119.726 139.09 118.816 140.558C113.444 149.332 109.947 157.248 108.619 163.643C109.688 162.214 110.556 160.6 111.46 158.92C112.264 157.416 113.111 155.862 114.141 154.315C115.753 151.913 117.665 149.558 119.51 147.285C124.94 140.578 130.084 134.247 128.707 126.545Z" fill="white"/>
<path d="M115.187 168.313C114.571 168.108 114.211 167.463 114.377 166.823C116.92 157.223 123.693 145.514 132.953 134.712L133.901 133.597C136.535 130.485 139.025 127.56 141.351 127.009C142.024 126.853 142.69 127.258 142.856 127.93C143.01 128.599 142.595 129.274 141.921 129.43C140.416 129.782 137.969 132.655 135.822 135.195L134.873 136.31C125.849 146.849 119.268 158.188 116.818 167.438C116.644 168.102 115.953 168.502 115.286 168.332C115.238 168.317 115.211 168.321 115.187 168.313Z" fill="white"/>
<path d="M141.203 129.443C140.552 129.226 140.201 128.518 140.422 127.87C141.542 124.556 142.12 121.088 142.675 117.73C143.409 113.342 144.091 109.187 145.905 105.382C148.044 100.899 150.443 97.1969 152.521 94.0841C155.869 89.0714 158.369 86.8863 163.684 82.7521C164.225 82.3285 165.011 82.4198 165.435 82.9546C165.858 83.4894 165.763 84.271 165.222 84.6947C160.03 88.7386 157.773 90.7159 154.612 95.4498C152.581 98.4998 150.231 102.099 148.168 106.438C146.502 109.924 145.841 113.903 145.151 118.122C144.577 121.578 143.989 125.148 142.79 128.659C142.568 129.307 141.866 129.664 141.203 129.443Z" fill="white"/>
<path d="M164.032 84.9355C163.617 84.7973 163.298 84.4548 163.202 84.0025C162.906 82.5117 162.344 81.0638 161.743 79.5372C160.803 77.149 159.839 74.6743 159.932 71.8941C159.956 71.206 160.538 70.664 161.231 70.6845C161.924 70.705 162.467 71.2798 162.443 71.968C162.37 74.2291 163.197 76.3694 164.091 78.6238C164.703 80.1936 165.339 81.8107 165.669 83.51C165.796 84.1826 165.36 84.8388 164.682 84.9677C164.456 85.0107 164.234 85.0026 164.032 84.9355Z" fill="white"/>
<path d="M196.903 119.306C196.749 119.255 196.594 119.164 196.46 119.053C192.199 115.248 186.612 114.045 181.211 112.878C180.323 112.688 179.435 112.497 178.562 112.299C177.888 112.14 177.468 111.473 177.631 110.802C177.793 110.131 178.467 109.71 179.141 109.868C180.002 110.063 180.878 110.249 181.75 110.448C187.46 111.678 193.38 112.952 198.139 117.2C198.656 117.663 198.691 118.452 198.227 118.957C197.888 119.331 197.355 119.457 196.903 119.306Z" fill="white"/>
<path d="M196.883 119.321C196.729 119.27 196.575 119.179 196.445 119.057C195.929 118.596 195.906 117.814 196.373 117.3L196.983 116.636C199.406 114.029 203.919 109.175 206.82 104.403C209.044 100.757 209.723 96.5319 208.602 93.4013C207.921 91.4939 206.586 90.1439 204.761 89.4969C203.626 89.1064 202.485 89.3173 200.847 89.5865C199.825 89.7583 198.659 89.9613 197.284 90.0421C196.599 90.0767 196.008 89.5649 195.965 88.8808C195.921 88.1968 196.452 87.6117 197.141 87.5653C198.369 87.4882 199.42 87.3126 200.431 87.1369C202.282 86.8207 203.884 86.579 205.603 87.1511C208.16 88.0544 210.017 89.9201 210.964 92.559C212.326 96.3739 211.559 101.397 208.958 105.679C205.918 110.668 201.298 115.643 198.81 118.321L198.204 118.973C197.865 119.346 197.334 119.471 196.883 119.321Z" fill="white"/>
<path d="M126.649 166.318C126.329 166.211 126.065 165.979 125.912 165.653C125.623 165.031 125.905 164.284 126.54 164.01C129.198 162.806 131.252 160.43 133.43 157.924C134.89 156.243 136.382 154.508 138.118 153.102C138.663 152.666 139.443 152.742 139.879 153.281C140.32 153.809 140.236 154.595 139.691 155.031C138.138 156.287 136.766 157.866 135.322 159.539C133.072 162.139 130.738 164.829 127.576 166.272C127.266 166.405 126.945 166.417 126.649 166.318Z" fill="white"/>
<path d="M138.496 155.289C138.473 155.281 138.449 155.273 138.425 155.265C137.786 155.013 137.477 154.293 137.735 153.657C139.342 149.69 141.189 146.721 143.37 144.586C143.864 144.107 144.656 144.108 145.135 144.596C145.615 145.084 145.61 145.87 145.117 146.349C143.19 148.24 141.531 150.93 140.048 154.572C139.799 155.184 139.112 155.494 138.496 155.289Z" fill="white"/>
<path d="M143.839 146.662C143.199 146.449 142.851 145.769 143.045 145.124C145.058 138.506 151.287 130.797 159.283 128.889C159.957 128.732 160.624 129.138 160.79 129.81C160.944 130.479 160.528 131.154 159.854 131.311C152.778 133 147.247 139.905 145.44 145.843C145.242 146.499 144.547 146.871 143.887 146.678C143.863 146.67 143.851 146.666 143.839 146.662Z" fill="white"/>
<path d="M159.165 131.317C158.987 131.258 158.833 131.167 158.695 131.029C158.198 130.548 158.191 129.756 158.674 129.272C162.347 125.534 168.104 127.582 171.204 128.692C171.854 128.922 172.191 129.639 171.957 130.285C171.726 130.919 171.014 131.261 170.373 131.047C170.361 131.043 170.361 131.043 170.349 131.039C166.797 129.778 162.825 128.627 160.473 131.015C160.117 131.358 159.605 131.463 159.165 131.317Z" fill="white"/>
<path d="M193.531 167.159L192.294 166.143C187.345 162.041 182.66 158.171 183.868 151.128L184.056 150.075C185.161 143.72 185.969 139.117 179.904 135.537C179.312 135.182 179.123 134.423 179.471 133.83C179.831 133.241 180.597 133.049 181.193 133.392C188.729 137.843 187.658 143.986 186.533 150.479L186.348 151.52C185.502 156.465 188.146 159.353 192.684 163.188C193.065 162.421 193.454 161.632 193.847 160.83C200.696 147.025 209.201 129.845 196.555 119.019C196.035 118.57 195.972 117.788 196.427 117.269C196.882 116.751 197.666 116.697 198.19 117.134C212.309 129.212 202.939 148.113 196.09 161.918C195.444 163.226 194.815 164.487 194.229 165.697L193.531 167.159Z" fill="white"/>
<path d="M138.499 155.345C138.226 155.254 137.973 155.065 137.816 154.789C137.463 154.199 137.67 153.44 138.267 153.086C140.463 151.806 142.304 150.25 144.261 148.589C148.409 145.08 152.694 141.446 160.458 140.586C168.194 139.73 174.52 138.668 179.59 133.508C180.077 133.013 180.874 133.002 181.359 133.479C181.855 133.959 181.862 134.75 181.38 135.233C175.731 140.963 168.682 142.166 160.728 143.042C153.722 143.812 149.92 147.041 145.879 150.467C143.926 152.117 141.913 153.826 139.534 155.216C139.2 155.42 138.819 155.451 138.499 155.345Z" fill="white"/>
<path d="M180.072 135.624C179.917 135.572 179.775 135.485 179.641 135.375C176.81 132.891 173.098 131.668 170.489 131.089C169.819 130.919 169.391 130.276 169.542 129.602C169.693 128.928 170.366 128.506 171.044 128.653C173.934 129.299 178.062 130.661 181.303 133.492C181.825 133.942 181.871 134.735 181.404 135.251C181.08 135.656 180.535 135.778 180.072 135.624Z" fill="white"/>
<path d="M162.187 136.283C162.021 136.227 161.879 136.101 161.805 135.932C161.676 135.613 161.829 135.244 162.151 135.115C165.095 133.926 168.366 132.322 170.249 129.52C170.441 129.229 170.834 129.163 171.114 129.348C171.406 129.537 171.483 129.931 171.284 130.206C169.208 133.298 165.73 135.005 162.604 136.263C162.476 136.326 162.318 136.326 162.187 136.283Z" fill="white"/>
<path d="M144.044 146.073C143.902 146.025 143.768 145.915 143.686 145.77C143.525 145.467 143.654 145.09 143.96 144.929C150.833 141.399 157.401 137.138 158.953 129.974C159.027 129.644 159.364 129.428 159.697 129.499C160.029 129.57 160.249 129.893 160.171 130.235C158.509 137.914 151.662 142.371 144.52 146.034C144.373 146.116 144.198 146.124 144.044 146.073Z" fill="white"/>
<path d="M122.338 163.449L121.294 162.839C124.877 151.815 131.247 141.628 138.757 134.891L140.467 133.361L139.778 135.533C136.851 144.675 130.334 155.102 122.338 163.449ZM137.737 137.569C131.813 143.483 126.753 151.574 123.46 160.398C129.732 153.353 134.879 145.121 137.737 137.569Z" fill="white"/>
<path d="M171.016 76.4784C170.957 76.4587 170.89 76.4233 170.838 76.38C170.567 76.1715 170.514 75.7864 170.725 75.5156L171.064 75.0642C175.583 69.2084 180.262 63.1563 181.289 56.0588C181.339 55.721 181.657 55.4856 181.996 55.5332C182.324 55.5768 182.571 55.8953 182.522 56.2331C181.452 63.6449 176.447 70.113 172.048 75.8119L171.697 76.2593C171.542 76.483 171.264 76.5612 171.016 76.4784Z" fill="white"/>
<path d="M149.27 122.139C149.199 122.116 149.144 122.084 149.081 122.037C148.809 121.828 148.76 121.431 148.983 121.164C150.24 119.574 151.638 117.61 153.124 115.544C154.765 113.255 156.447 110.886 157.951 109.037C161.669 104.458 166.618 101.261 171.874 97.863C179.471 92.947 187.334 87.8702 191.559 78.1427C191.695 77.8206 192.06 77.6795 192.384 77.8136C192.708 77.9476 192.849 78.3094 192.712 78.6315C188.342 88.7047 180.324 93.8875 172.56 98.9055C167.404 102.244 162.538 105.391 158.94 109.812C157.46 111.631 155.786 113.975 154.161 116.257C152.667 118.346 151.269 120.31 149.988 121.932C149.793 122.156 149.507 122.218 149.27 122.139Z" fill="white"/>
<path d="M188.131 111.158C188.001 111.115 187.882 111.036 187.808 110.906C187.616 110.619 187.693 110.238 187.983 110.046C190.893 108.139 192.541 105.288 194.281 102.284C196.101 99.122 197.998 95.8544 201.461 93.87C201.759 93.6935 202.147 93.7961 202.319 94.1029C202.495 94.3979 202.39 94.7829 202.08 94.9554C198.91 96.7752 197.194 99.7482 195.362 102.906C193.622 105.91 191.829 109.029 188.654 111.096C188.499 111.202 188.309 111.217 188.131 111.158Z" fill="white"/>
<path d="M135.24 124.025C135.228 124.021 135.228 124.021 135.216 124.017C134.889 123.895 134.733 123.542 134.858 123.216C135.572 121.355 136.305 119.514 137.055 117.665C140.238 109.767 143.245 102.309 143.592 93.9642C143.615 93.3948 143.599 92.8253 143.582 92.2951C143.562 91.6589 143.546 91.0501 143.597 90.5161C144.162 84.6572 146.042 81.2703 150.57 78.0319C150.852 77.8241 151.238 77.8874 151.446 78.1665C151.642 78.4416 151.588 78.8303 151.306 79.0381C147.067 82.0845 145.375 85.1143 144.848 90.6315C144.798 91.087 144.83 91.6486 144.834 92.2534C144.85 92.8229 144.87 93.4199 144.851 94.0168C144.494 102.582 141.311 110.48 138.229 118.122C137.483 119.959 136.749 121.8 136.039 123.649C135.907 123.959 135.559 124.132 135.24 124.025Z" fill="white"/>
<path d="M121.533 121.651C121.521 121.648 121.497 121.64 121.485 121.636C121.162 121.502 121.021 121.14 121.158 120.818C121.921 119.05 122.428 115.753 122.585 113.442C122.84 109.339 121.183 106.307 119.441 103.101C117.46 99.475 115.421 95.7111 116.199 90.2724C116.356 89.1956 116.513 88.1189 116.685 87.0736C117.563 81.3795 118.384 76.0076 117 71.8318C116.888 71.5055 117.072 71.1598 117.401 71.0462C117.73 70.9326 118.078 71.1139 118.19 71.4402C119.675 75.8991 118.83 81.4203 117.927 87.2638C117.766 88.313 117.602 89.374 117.445 90.4508C116.725 95.4887 118.58 98.9026 120.554 102.513C122.315 105.738 124.12 109.069 123.847 113.534C123.693 116.03 123.158 119.409 122.331 121.326C122.178 121.617 121.841 121.754 121.533 121.651Z" fill="white"/>
<path d="M194.16 144.642C193.875 144.547 193.686 144.248 193.752 143.941C195.379 135.316 192.699 130.624 186.059 123.391C182.371 119.362 175.655 118.035 170.08 120.218C169.758 120.347 169.39 120.185 169.273 119.87C169.144 119.551 169.309 119.185 169.627 119.067C175.663 116.697 182.965 118.166 186.996 122.545C193.778 129.944 196.706 135.074 194.984 144.166C194.922 144.501 194.592 144.733 194.255 144.673C194.207 144.658 194.184 144.65 194.16 144.642Z" fill="white"/>
<path d="M61 130.501C56.2 128.101 47.3333 120.501 44 117.001L56.5 119.501C61.5 123.501 65.8 132.901 61 130.501Z" fill="#FF3F33"/>
<path d="M84.3019 135.825C78.5962 136.726 71.0566 133.948 68 132.447L72.5849 129.069C75.3019 129.444 81.6528 130.195 85.3208 130.195C88.9887 130.195 93.3019 126.066 95 124.001L94.4906 130.195C93.4717 131.696 90.0075 134.924 84.3019 135.825Z" fill="#FF3F33"/>
<path d="M71.5 124.501L69.5 128.001L82 126.501L87 120.501V117.501C85 118.835 80.6 121.701 79 122.501C77.4 123.301 73.3333 124.168 71.5 124.501Z" fill="#FF3F33"/>
<path d="M57.9998 138.001L64 134.001L66 134.501L65 140.001L61 146.001C59.4999 147.501 56.3998 150.101 55.9998 148.501C55.5998 146.901 57.1664 140.835 57.9998 138.001Z" fill="#FF3F33"/>
<path fill-rule="evenodd" clip-rule="evenodd" d="M60.5393 123.342C61.2584 123.176 61.4061 123.586 61.9577 123.576L61.8395 124.395L62.6669 124.278C62.6669 124.98 62.6669 125.682 62.6669 126.384L61.7213 126.267L60.7757 126.15C60.3226 125.663 60.0172 125.029 59.8301 124.278L60.6575 124.161L60.5393 123.342Z" fill="white"/>
<path d="M57.5745 190.529C53.2798 190.529 49.0836 190.256 45.4588 189.369C25.1083 184.366 19.6218 165.887 21.2766 150.266C22.3995 139.617 28.6051 130.304 37.884 125.36C40.6125 123.908 43.0455 123.683 45.8626 123.43C47.1136 123.313 48.404 123.196 49.8618 122.962C50.4035 122.874 50.9059 123.235 50.9946 123.771C51.0832 124.298 50.7188 124.805 50.177 124.892C48.6502 125.136 47.2613 125.263 46.0399 125.37C43.3311 125.614 41.1936 125.809 38.8197 127.077C30.1122 131.718 24.2907 140.465 23.2368 150.47C21.6706 165.273 26.8124 182.777 45.9414 187.477C52.1864 189.018 60.4409 188.608 67.7201 188.247L70.3206 188.121C75.2161 187.896 80.3678 185.517 83.8252 183.567C93.3207 178.203 98.4231 168.315 99.0043 154.166C99.2309 148.54 97.9405 137.745 91.6265 133.006C91.1931 132.684 91.1045 132.069 91.4394 131.64C91.7644 131.211 92.385 131.124 92.8184 131.455C99.7825 136.682 101.221 148.237 100.974 154.244C100.383 168.901 94.7884 179.627 84.8102 185.263C81.1558 187.321 75.6988 189.827 70.4191 190.071L67.8285 190.198C64.5188 190.354 61.022 190.529 57.5745 190.529Z" fill="white"/>
<path d="M60.6577 125.136C60.3228 125.136 59.9977 124.971 59.8204 124.668C57.0919 120.241 51.5266 118.876 46.109 118.174C46.6803 118.866 47.3403 119.51 48.0298 120.183C49.0345 121.158 50.0786 122.172 50.8666 123.42C51.1523 123.878 51.0144 124.473 50.5514 124.766C50.0885 125.049 49.4876 124.912 49.1921 124.454C48.5321 123.41 47.6161 122.523 46.6507 121.577C45.3899 120.358 44.0897 119.09 43.2721 117.384L42.5137 115.804L44.267 115.989C49.2807 116.526 57.6632 117.433 61.5048 123.654C61.7905 124.112 61.6427 124.717 61.1797 125C61.0024 125.088 60.8251 125.136 60.6577 125.136Z" fill="white"/>
<path d="M63.3873 130.431C63.2198 130.431 63.0622 130.392 62.9046 130.305C62.4318 130.041 62.2545 129.446 62.5205 128.978C63.1509 127.847 63.7025 126.657 64.2837 125.39C65.643 122.445 67.0417 119.393 69.6422 117.072C70.046 116.711 70.6666 116.74 71.031 117.14C71.3955 117.54 71.3659 118.154 70.9621 118.515C68.667 120.563 67.3471 123.43 66.0764 126.199C65.5051 127.447 64.9141 128.725 64.2344 129.924C64.067 130.246 63.7321 130.431 63.3873 130.431Z" fill="white"/>
<path d="M70.3103 118.778C69.9458 118.778 69.6011 118.583 69.4336 118.242C68.8229 117.043 69.1086 115.834 69.3548 114.771C69.5518 113.952 69.7193 113.24 69.4829 112.655C69.2859 112.157 69.5321 111.592 70.0443 111.397C70.5467 111.202 71.118 111.445 71.315 111.952C71.7681 113.093 71.5022 114.225 71.2657 115.219C71.0687 116.068 70.8914 116.809 71.1771 117.374C71.4332 117.842 71.2362 118.427 70.7535 118.671C70.6058 118.739 70.458 118.778 70.3103 118.778Z" fill="white"/>
<path d="M61.8408 125.37C61.762 125.37 61.6832 125.361 61.6142 125.341C61.0823 125.214 60.7572 124.688 60.8853 124.161C61.7521 120.582 64.2245 117.852 66.628 115.219C67.7115 114.03 68.7359 112.908 69.6126 111.718C69.9376 111.289 70.5483 111.192 70.9916 111.504C71.4348 111.816 71.5235 112.43 71.2083 112.869C70.2528 114.147 69.1496 115.356 68.0858 116.526C65.7513 119.091 63.5448 121.519 62.7962 124.61C62.6879 125.068 62.284 125.37 61.8408 125.37Z" fill="white"/>
<path d="M75.7287 119.52C75.4726 119.52 75.2164 119.422 75.0194 119.227C74.6451 118.837 74.6451 118.223 75.0391 117.852C75.7484 117.17 75.6105 116.546 75.5218 116.312C75.4134 116.039 75.2066 115.844 75.0096 115.834C74.8421 115.824 74.4383 116.058 74.0837 116.76C73.8473 117.248 73.2563 117.443 72.7638 117.209C72.2712 116.975 72.0742 116.39 72.3106 115.902C73.2563 114.01 74.5762 113.874 75.0982 113.883C76.0833 113.932 76.9698 114.615 77.3539 115.629C77.8169 116.858 77.4524 118.242 76.3985 119.257C76.2212 119.422 75.9749 119.52 75.7287 119.52Z" fill="white"/>
<path d="M59.9191 131.474C59.732 131.474 59.5448 131.426 59.3774 131.309C58.3825 130.646 57.3187 130.041 56.1859 129.397C53.8022 128.042 51.3298 126.628 49.3203 124.609C48.9362 124.229 48.946 123.605 49.3302 123.235C49.7144 122.854 50.3448 122.864 50.7191 123.244C52.5512 125.078 54.8955 126.423 57.1709 127.71C58.2742 128.344 59.4168 128.988 60.4707 129.69C60.9239 129.992 61.0421 130.597 60.7465 131.045C60.5495 131.318 60.2343 131.474 59.9191 131.474Z" fill="white"/>
<path d="M62.6077 133.035C62.5289 133.035 62.46 133.025 62.3812 133.006C61.603 132.83 61.012 132.392 60.4899 132.001C60.1649 131.758 59.8497 131.524 59.5345 131.397C59.0321 131.192 58.7957 130.617 59.0026 130.119C59.2094 129.622 59.7906 129.388 60.2929 129.593C60.8347 129.817 61.2779 130.149 61.6621 130.441C62.0758 130.753 62.4403 131.017 62.8146 131.104C63.3465 131.221 63.6715 131.748 63.5533 132.275C63.4548 132.723 63.051 133.035 62.6077 133.035Z" fill="white"/>
<path d="M62.6084 133.035C62.3819 133.035 62.1553 132.957 61.978 132.801C61.5643 132.45 61.5052 131.835 61.8598 131.426C62.3326 130.87 62.5592 130.187 62.4311 129.68C62.3031 129.154 62.6281 128.627 63.1502 128.5C63.6722 128.374 64.214 128.695 64.342 129.212C64.6178 130.334 64.2534 131.621 63.357 132.674C63.16 132.918 62.8842 133.035 62.6084 133.035Z" fill="white"/>
<path d="M63.3855 130.431C63.356 130.431 63.3166 130.431 63.287 130.421C61.5731 130.246 61.248 128.578 61.0609 127.584C60.9919 127.233 60.923 126.872 60.8245 126.667C60.5979 126.18 60.8245 125.595 61.317 125.38C61.8193 125.156 62.4005 125.38 62.6172 125.868C62.8043 126.287 62.893 126.765 62.9816 127.213C63.1393 128.032 63.2673 128.461 63.484 128.481C64.0258 128.539 64.4198 129.017 64.3607 129.554C64.3114 130.061 63.878 130.431 63.3855 130.431Z" fill="white"/>
<path d="M63.732 134.966C63.6926 134.966 63.663 134.966 63.6236 134.956C63.0819 134.898 62.6879 134.42 62.747 133.884C62.7765 133.64 62.6977 133.347 62.0082 132.83C61.5748 132.509 61.4861 131.894 61.8112 131.465C62.1362 131.036 62.7568 130.948 63.1902 131.27C63.6039 131.582 64.8647 132.518 64.6973 134.079C64.6579 134.595 64.2245 134.966 63.732 134.966Z" fill="white"/>
<path d="M67.761 133.503C67.7019 133.503 67.6428 133.503 67.5837 133.484C67.0518 133.386 66.6972 132.879 66.7957 132.343C66.9533 131.514 67.4458 130.9 67.8398 130.402L68.0171 130.188C68.3422 129.759 68.9628 129.681 69.3962 130.012C69.8296 130.344 69.9084 130.948 69.5735 131.377L69.3863 131.621C69.0711 132.011 68.8052 132.353 68.7362 132.713C68.6377 133.181 68.224 133.503 67.761 133.503Z" fill="white"/>
<path d="M68.7923 131.757C68.7726 131.757 68.7529 131.757 68.7431 131.757C68.2013 131.728 67.7876 131.27 67.8073 130.733C67.9354 128.325 68.8908 125.126 71.1662 123.391C71.5996 123.059 72.2103 123.137 72.5452 123.566C72.8802 123.995 72.8014 124.61 72.3679 124.931C70.6146 126.267 69.8759 128.949 69.7773 130.841C69.7379 131.358 69.3045 131.757 68.7923 131.757Z" fill="white"/>
<path d="M71.7688 125.136C71.7196 125.136 71.6802 125.136 71.6309 125.126C71.0892 125.048 70.7149 124.561 70.7937 124.025C71.0104 122.513 72.1826 121.548 73.2168 120.699C74.2314 119.87 74.8421 119.315 74.7534 118.671C74.6845 118.135 75.0588 117.647 75.6006 117.579C76.1423 117.511 76.6348 117.881 76.7038 118.418C76.9402 120.183 75.571 121.304 74.4678 122.201C73.6305 122.884 72.8425 123.527 72.744 124.298C72.6751 124.785 72.2515 125.136 71.7688 125.136Z" fill="white"/>
<path d="M75.2069 119.588C74.7243 119.588 74.2712 119.461 73.8673 119.217C73.0891 118.74 72.5178 117.813 72.242 116.526C72.1238 115.999 72.4686 115.483 72.9906 115.366C73.5225 115.249 74.0446 115.59 74.1628 116.107C74.3204 116.828 74.5962 117.365 74.9016 117.55C74.9902 117.608 75.1577 117.677 75.4729 117.589C75.9949 117.452 76.5367 117.774 76.6746 118.291C76.8125 118.808 76.4874 119.344 75.9654 119.481C75.7093 119.549 75.4532 119.588 75.2069 119.588Z" fill="white"/>
<path d="M70.3129 118.778C69.8401 118.778 69.4264 118.447 69.3476 117.969C69.2589 117.442 69.6135 116.935 70.1553 116.847C70.4114 116.808 70.697 116.574 71.0221 116.321C71.5638 115.892 72.2336 115.355 73.2088 115.355C73.2187 115.355 73.2187 115.355 73.2285 115.355C73.7703 115.355 74.2135 115.804 74.2037 116.34C74.2037 116.877 73.7604 117.306 73.2187 117.306H73.2088C72.933 117.306 72.6671 117.511 72.2632 117.842C71.8002 118.183 71.2388 118.632 70.4803 118.759C70.4212 118.768 70.3621 118.778 70.3129 118.778Z" fill="white"/>
<path d="M81.9338 127.242C81.7171 127.242 81.5004 127.174 81.3133 127.028C80.8897 126.686 80.8208 126.072 81.1655 125.653C81.6876 125.009 82.3279 124.385 82.9977 123.712C84.7313 121.996 86.002 120.631 86.2187 119.256C82.8401 122.454 77.7278 124.561 71.8571 125.126C71.3252 125.175 70.8327 124.785 70.7835 124.249C70.7342 123.712 71.1282 123.234 71.67 123.186C77.8854 122.581 83.1356 120.163 86.0709 116.545L87.0461 115.345L87.7257 116.73C89.4003 120.153 86.6225 122.893 84.3964 125.097C83.7561 125.721 83.1553 126.316 82.7022 126.872C82.5052 127.115 82.2195 127.242 81.9338 127.242Z" fill="white"/>
<path d="M82.4543 131.358C80.957 131.358 79.45 131.114 77.9724 130.88C75.4015 130.47 72.9784 130.08 70.6833 130.919C70.1809 131.104 69.6096 130.851 69.4225 130.343C69.2353 129.836 69.4914 129.281 70.0036 129.095C72.7814 128.081 75.5788 128.53 78.2876 128.959C81.1836 129.417 83.9219 129.856 86.4042 128.461C86.877 128.188 87.4779 128.354 87.7438 128.822C88.0098 129.29 87.8522 129.885 87.3793 130.148C85.7639 131.065 84.1091 131.358 82.4543 131.358Z" fill="white"/>
<path d="M68.7838 131.758C68.2421 131.758 67.7988 131.329 67.7988 130.792C67.7988 130.256 68.2322 129.817 68.774 129.807C69.0892 129.807 69.3552 129.671 69.5522 129.407C69.8772 128.978 70.4978 128.9 70.9312 129.232C71.3646 129.564 71.4434 130.168 71.1085 130.597C70.5569 131.338 69.7295 131.758 68.7838 131.758C68.7937 131.758 68.7937 131.758 68.7838 131.758Z" fill="white"/>
<path d="M92.2193 133.21C92.0715 133.21 91.9336 133.181 91.7957 133.113C91.3032 132.879 91.0964 132.294 91.3328 131.816C91.6283 131.211 91.9927 130.616 92.3769 129.973C93.5786 127.983 94.3765 126.501 93.9628 125.263C93.9037 125.458 93.8544 125.653 93.815 125.819C93.5589 126.794 93.3127 127.71 92.8202 128.296C91.5889 129.758 88.9195 130.626 86.7525 130.275C86.2205 130.187 85.8462 129.69 85.9349 129.154C86.0235 128.617 86.5259 128.256 87.0677 128.344C88.5649 128.588 90.5054 127.983 91.3032 127.038C91.5101 126.784 91.7465 125.906 91.9041 125.312C92.2587 123.995 92.5641 122.854 93.5688 122.649C93.9628 122.571 94.5538 122.63 95.135 123.361C97.1444 125.887 95.4403 128.695 94.0711 130.967C93.7067 131.572 93.3718 132.138 93.1157 132.654C92.9285 133.005 92.5838 133.21 92.2193 133.21Z" fill="white"/>
<path d="M80.3755 136.819C78.1395 136.819 76.0217 136.546 74.1797 136.185C73.6478 136.078 73.3031 135.57 73.4016 135.044C73.5001 134.517 74.0221 134.166 74.554 134.274C79.3806 135.219 86.256 135.502 91.6047 131.455C92.0381 131.134 92.6586 131.212 92.9837 131.641C93.3088 132.07 93.2299 132.684 92.7965 133.006C88.9747 135.912 84.483 136.819 80.3755 136.819Z" fill="white"/>
<path d="M79.7071 148.959C75.8163 148.959 71.5512 143.069 69.2462 139.354C68.803 138.642 68.4779 137.989 68.1922 137.423C67.4239 135.882 67.0989 135.336 65.8775 135.141C65.3455 135.053 64.9712 134.556 65.0599 134.02C65.1485 133.483 65.6509 133.123 66.1927 133.21C68.4779 133.581 69.1871 135.024 69.9554 136.555C70.2214 137.091 70.5267 137.696 70.9207 138.33C73.6788 142.777 76.4467 145.799 78.5054 146.716C77.7272 145.253 77.2445 143.693 76.7717 142.172C76.0428 139.832 75.3533 137.618 73.6689 135.912C73.2848 135.521 73.2946 134.907 73.6886 134.537C74.0826 134.156 74.7032 134.166 75.0775 134.556C77.087 136.604 77.8848 139.149 78.6433 141.606C79.2934 143.683 79.9041 145.643 81.1945 147.291L82.0908 148.432L80.6823 148.832C80.3671 148.91 80.0321 148.959 79.7071 148.959Z" fill="white"/>
<path d="M56.1069 151.036C55.7523 151.036 55.4174 150.851 55.2401 150.519C54.984 150.041 55.1613 149.456 55.6439 149.203C61.1994 146.258 64.716 140.612 65.0607 134.117C65.0903 133.581 65.5532 133.162 66.095 133.191C66.6367 133.22 67.0504 133.678 67.0307 134.215C66.6466 141.402 62.7361 147.642 56.5797 150.909C56.4221 150.997 56.2645 151.036 56.1069 151.036Z" fill="white"/>
<path d="M54.1962 155.405C54.0288 155.405 53.8613 155.366 53.7136 155.278C53.2408 155.015 53.0733 154.42 53.3393 153.952C54.1371 152.567 54.7084 151.056 55.1812 149.739C55.3684 149.232 55.9299 148.969 56.4421 149.154C56.9543 149.339 57.2202 149.895 57.0331 150.402C56.5307 151.787 55.92 153.396 55.0433 154.917C54.866 155.229 54.5311 155.405 54.1962 155.405Z" fill="white"/>
<path d="M56.1072 151.036C55.6246 151.036 55.2108 150.685 55.132 150.207C54.3933 145.351 55.5359 140.3 58.2545 136.36C58.5599 135.911 59.1706 135.804 59.6237 136.106C60.0768 136.409 60.1852 137.013 59.8798 137.462C57.437 141.011 56.4126 145.546 57.0725 149.924C57.1513 150.461 56.7869 150.958 56.2451 151.036C56.2057 151.036 56.1565 151.036 56.1072 151.036Z" fill="white"/>
<path d="M86.8983 130.285C86.5535 130.285 86.2285 130.109 86.0413 129.797C85.6769 129.164 84.8199 128.861 83.9235 128.54C82.9287 128.188 81.8058 127.789 81.1261 126.833C80.8109 126.394 80.9192 125.78 81.3625 125.478C81.8058 125.166 82.4263 125.273 82.7317 125.712C83.0567 126.16 83.7955 126.423 84.5835 126.706C85.7261 127.116 87.0264 127.574 87.7454 128.832C88.0114 129.3 87.8538 129.895 87.381 130.158C87.2332 130.236 87.0658 130.285 86.8983 130.285Z" fill="white"/>
<path d="M70.3519 130.987C70.2239 130.987 70.0958 130.958 69.9678 130.909C69.4654 130.694 69.229 130.129 69.4457 129.632C71.0119 125.985 74.6171 125.858 77.8085 125.75C79.2171 125.702 80.5567 125.653 81.66 125.331C82.1919 125.175 82.7336 125.477 82.8814 125.994C83.039 126.511 82.7336 127.057 82.2116 127.203C80.8621 127.593 79.3452 127.652 77.8676 127.701C74.4201 127.818 72.253 128.062 71.2582 130.392C71.0907 130.763 70.7361 130.987 70.3519 130.987Z" fill="white"/>
<path d="M59.0719 137.882C58.6286 137.882 58.2346 137.589 58.1164 137.15C57.9883 136.624 58.3035 136.097 58.8256 135.97C59.9879 135.678 60.9631 134.907 61.9875 134.088C62.3717 133.786 62.7558 133.484 63.14 133.201C63.5832 132.889 64.1939 132.986 64.519 133.425C64.8342 133.864 64.7357 134.469 64.2925 134.79C63.928 135.054 63.5734 135.336 63.2188 135.619C62.0663 136.526 60.8843 137.472 59.3083 137.872C59.2295 137.872 59.1507 137.882 59.0719 137.882Z" fill="white"/>
<path d="M42.5139 140.056L41.5781 138.398C42.5237 137.54 43.4004 136.653 44.2475 135.795C46.8578 133.162 49.3302 130.685 52.8467 129.768C54.0287 129.466 55.3093 129.563 56.5504 129.661C57.7127 129.749 58.8159 129.836 59.5842 129.563C60.0964 129.388 60.6579 129.651 60.8451 130.158C61.0224 130.665 60.7564 131.221 60.2442 131.406C59.0819 131.816 57.7127 131.709 56.3928 131.611C55.3093 131.533 54.1962 131.445 53.3392 131.66C50.394 132.421 48.2368 134.556 45.7644 137.043C50.0099 135.756 54.7183 134.537 59.3577 135.97C59.8797 136.136 60.1654 136.682 60.0078 137.189C59.8403 137.706 59.2986 137.989 58.7765 137.833C54.3341 136.458 49.7341 137.872 45.2818 139.227C44.3362 139.529 43.4103 139.812 42.5139 140.056Z" fill="white"/>
<path d="M74.3797 136.204C74.1827 136.204 73.9759 136.145 73.8084 136.019C72.4984 135.083 70.9617 134.595 69.3266 134.078C68.6863 133.873 68.0461 133.669 67.4255 133.444C66.9133 133.259 66.6572 132.693 66.8444 132.186C67.0315 131.679 67.6028 131.426 68.115 131.611C68.7159 131.826 69.3266 132.021 69.9373 132.216C71.6414 132.752 73.4046 133.308 74.9708 134.429C75.414 134.741 75.5125 135.356 75.1875 135.794C74.9806 136.067 74.6851 136.204 74.3797 136.204Z" fill="white"/>
<path d="M66.0273 135.093C65.8007 135.093 65.5643 135.015 65.3772 134.849C64.9635 134.498 64.9241 133.874 65.2885 133.474C65.3772 133.376 65.4757 133.191 65.5643 133.016C65.85 132.47 66.4607 131.348 67.9087 131.572C68.4504 131.66 68.8149 132.158 68.7262 132.684C68.6376 133.211 68.1352 133.581 67.6033 133.494C67.5639 133.484 67.5344 133.494 67.5344 133.494C67.5147 133.533 67.3866 133.767 67.298 133.932C67.1601 134.196 66.9926 134.498 66.7562 134.771C66.569 134.976 66.3031 135.093 66.0273 135.093Z" fill="white"/>
<path d="M66.0158 135.121C65.5923 135.121 65.218 134.868 65.0899 134.439L66.0355 134.176L65.0801 134.419L66.9615 133.844C67.1092 134.361 66.8137 134.926 66.2916 135.082C66.2128 135.112 66.1143 135.121 66.0158 135.121Z" fill="white"/>
<path d="M66.0273 135.093C65.9091 135.093 65.7811 135.073 65.6629 135.024C65.4757 134.946 65.1999 134.976 64.8847 135.005C64.4808 135.044 63.9686 135.083 63.4367 134.927C62.9147 134.771 62.6192 134.225 62.7768 133.708C62.9344 133.191 63.4761 132.899 64.008 133.055C64.1755 133.103 64.4316 133.084 64.7173 133.055C65.1901 133.016 65.7712 132.957 66.3918 133.201C66.8941 133.396 67.1502 133.962 66.9434 134.469C66.7956 134.859 66.4213 135.093 66.0273 135.093Z" fill="white"/>
</svg>
